<svg version="1.1" id="Layer_1" xmlns="http://www.w3.org/2000/svg" xmlns:xlink="http://www.w3.org/1999/xlink" x="0px" y="0px"
	 width="100%" viewBox="0 0 62 86" enable-background="new 0 0 62 86" xml:space="preserve">
<path fill="#FAFAFA" opacity="1.000000" stroke="none" 
	d="
M38.000038,87.000000 
	C25.333353,87.000000 13.166689,87.000000 1.000018,87.000000 
	C1.000012,58.333344 1.000012,29.666689 1.000006,1.000025 
	C21.666653,1.000017 42.333305,1.000017 62.999969,1.000008 
	C62.999977,29.666649 62.999977,58.333298 62.999989,86.999969 
	C54.833351,87.000000 46.666702,87.000000 38.000038,87.000000 
M13.073075,33.976883 
	C8.478618,41.248692 9.597663,52.095238 15.913987,60.773571 
	C15.913987,60.773571 16.314165,60.922630 16.329708,61.598640 
	C20.663689,68.218231 22.218250,68.647659 29.359861,67.124062 
	C32.118347,66.535561 35.308693,66.792534 38.045662,67.568939 
	C41.789406,68.630959 44.739948,67.835930 46.925728,64.997231 
	C49.093452,62.181984 50.728493,58.956573 52.927567,55.306671 
	C52.401497,54.471603 51.875427,53.636532 51.156464,52.105530 
	C45.698814,46.835606 45.044762,41.517426 49.762810,36.074825 
	C52.142712,33.329441 51.859142,31.605574 48.743908,30.537321 
	C45.179607,29.315081 41.434269,28.620777 38.119579,27.785755 
	C39.711369,24.550987 41.387001,21.145834 43.147423,17.568369 
	C36.418728,15.890204 32.932735,19.389803 30.614239,28.984972 
	C19.129017,28.273796 18.115929,28.558790 13.996420,33.998631 
	C13.996420,33.998631 13.732076,33.729790 13.073075,33.976883 
z"/>
<path fill="#0A0A0A" opacity="1.000000" stroke="none" 
	d="
M16.314165,60.922630 
	C16.314165,60.922630 15.913987,60.773571 15.946571,60.169579 
	C14.638485,53.757973 12.935145,48.000610 12.120425,42.120132 
	C11.750357,39.449051 13.140431,36.534111 13.732075,33.729790 
	C13.732076,33.729790 13.996420,33.998631 14.230701,33.945477 
	C19.622080,30.348646 24.843752,28.410025 31.105219,31.616968 
	C32.675903,32.421425 35.451733,31.817028 37.279552,30.989511 
	C41.857754,28.916800 45.512943,30.070133 49.448517,33.341644 
	C48.449440,34.691723 47.515480,35.791275 46.759953,37.002163 
	C42.956329,43.098244 45.262962,50.973446 51.349358,52.801464 
	C51.875427,53.636532 52.401497,54.471603 52.431828,55.637363 
	C50.727428,57.503098 49.418686,58.970535 48.328007,60.585270 
	C44.307957,66.536903 42.410587,67.018562 35.498444,64.889114 
	C33.559711,64.291840 31.115637,64.911774 29.001854,65.399887 
	C25.360567,66.240723 21.913906,67.218796 19.355906,63.188442 
	C18.723047,62.191322 17.348026,61.665241 16.314165,60.922630 
z"/>
<path fill="#353535" opacity="1.000000" stroke="none" 
	d="
M51.252911,52.453499 
	C45.262962,50.973446 42.956329,43.098244 46.759953,37.002163 
	C47.515480,35.791275 48.449440,34.691723 49.448517,33.341644 
	C45.512943,30.070133 41.857754,28.916800 37.279552,30.989511 
	C35.451733,31.817028 32.675903,32.421425 31.105219,31.616968 
	C24.843752,28.410025 19.622080,30.348646 14.095404,33.814106 
	C18.115929,28.558790 19.129017,28.273796 30.614239,28.984972 
	C32.932735,19.389803 36.418728,15.890204 43.147423,17.568369 
	C41.387001,21.145834 39.711369,24.550987 38.119579,27.785755 
	C41.434269,28.620777 45.179607,29.315081 48.743908,30.537321 
	C51.859142,31.605574 52.142712,33.329441 49.762810,36.074825 
	C45.044762,41.517426 45.698814,46.835606 51.252911,52.453499 
M36.028393,28.433544 
	C36.264919,28.507347 36.501450,28.581148 36.737976,28.654951 
	C36.657551,28.428034 36.577126,28.201117 36.028393,28.433544 
z"/>
<path fill="#353535" opacity="1.000000" stroke="none" 
	d="
M16.321938,61.260635 
	C17.348026,61.665241 18.723047,62.191322 19.355906,63.188442 
	C21.913906,67.218796 25.360567,66.240723 29.001854,65.399887 
	C31.115637,64.911774 33.559711,64.291840 35.498444,64.889114 
	C42.410587,67.018562 44.307957,66.536903 48.328007,60.585270 
	C49.418686,58.970535 50.727428,57.503098 52.266621,55.939552 
	C50.728493,58.956573 49.093452,62.181984 46.925728,64.997231 
	C44.739948,67.835930 41.789406,68.630959 38.045662,67.568939 
	C35.308693,66.792534 32.118347,66.535561 29.359861,67.124062 
	C22.218250,68.647659 20.663689,68.218231 16.321938,61.260635 
z"/>
<path fill="#353535" opacity="1.000000" stroke="none" 
	d="
M13.402575,33.853336 
	C13.140431,36.534111 11.750357,39.449051 12.120425,42.120132 
	C12.935145,48.000610 14.638485,53.757973 15.887268,59.964455 
	C9.597663,52.095238 8.478618,41.248692 13.402575,33.853336 
z"/>
<path fill="#FAFAFA" opacity="1.000000" stroke="none" 
	d="
M36.262547,28.203873 
	C36.577126,28.201117 36.657551,28.428034 36.737976,28.654951 
	C36.501450,28.581148 36.264919,28.507347 36.262547,28.203873 
z"/>
</svg>