<svg version="1.1" id="Layer_1" xmlns="http://www.w3.org/2000/svg" xmlns:xlink="http://www.w3.org/1999/xlink" x="0px" y="0px"
	 width="100%" viewBox="0 0 94 108" enable-background="new 0 0 94 108" xml:space="preserve">
<path fill="#FEFEFE" opacity="1.000000" stroke="none" 
	d="
M1.000002,102.000000 
	C1.000000,71.645775 1.000000,41.291542 1.357722,10.446203 
	C6.476963,6.970061 11.238482,3.985030 16.000000,1.000000 
	C42.290604,1.000000 68.581207,1.000000 94.935905,1.000000 
	C94.935905,36.898758 94.935905,72.797653 94.935905,109.000000 
	C67.646523,109.000000 40.291916,109.000000 12.419266,108.654243 
	C8.267479,106.205658 4.633741,104.102829 1.000002,102.000000 
M64.671196,65.723091 
	C67.865265,64.012474 71.202362,62.518791 74.214783,60.532669 
	C77.488869,58.374023 78.006622,55.068443 74.884132,52.687656 
	C71.590347,50.176254 67.571632,48.615623 63.584618,45.987495 
	C52.995678,39.726646 42.450687,33.388279 31.751368,27.322109 
	C30.653685,26.699760 28.632755,27.705801 26.278236,28.102386 
	C25.552340,29.798809 24.214411,31.488693 24.196211,33.192677 
	C24.032909,48.479858 24.030254,63.770344 24.205435,79.057274 
	C24.224342,80.707306 25.670433,82.340988 26.883923,84.594795 
	C28.410213,84.797470 30.343725,85.704674 31.399998,85.094162 
	C42.332958,78.774956 53.124435,72.210960 64.671196,65.723091 
z"/>
<path fill="#F8D2DE" opacity="1.000000" stroke="none" 
	d="
M15.527336,1.000000 
	C11.238482,3.985030 6.476963,6.970061 1.357722,9.977546 
	C1.000000,7.056850 1.000000,4.113699 1.000000,1.000000 
	C5.684015,1.000000 10.369344,1.000000 15.527336,1.000000 
z"/>
<path fill="#F8D3DE" opacity="1.000000" stroke="none" 
	d="
M1.000002,102.497894 
	C4.633741,104.102829 8.267479,106.205658 11.950608,108.654243 
	C8.437216,109.000000 4.874432,109.000000 1.000000,109.000000 
	C1.000000,107.003677 1.000000,104.999741 1.000002,102.497894 
z"/>
<path fill="#67CFF5" opacity="1.000000" stroke="none" 
	d="
M26.454506,83.982254 
	C25.670433,82.340988 24.224342,80.707306 24.205435,79.057274 
	C24.030254,63.770344 24.032909,48.479858 24.196211,33.192677 
	C24.214411,31.488693 25.552340,29.798809 26.815260,28.328402 
	C28.961241,30.206676 30.528757,31.901815 32.186279,33.503830 
	C39.665070,40.732155 47.169346,47.934113 54.697952,55.372269 
	C54.678673,55.914604 54.726795,56.214077 54.823288,56.556107 
	C54.770752,56.614830 54.789799,56.771271 54.446732,56.770481 
	C50.981586,59.674404 47.743107,62.465080 44.762020,65.507919 
	C38.819912,71.573105 33.019176,77.776802 26.980097,83.895401 
	C26.800148,83.867523 26.454506,83.982254 26.454506,83.982254 
z"/>
<path fill="#77EC89" opacity="1.000000" stroke="none" 
	d="
M54.664440,55.145569 
	C47.169346,47.934113 39.665070,40.732155 32.186279,33.503830 
	C30.528757,31.901815 28.961241,30.206676 27.196260,28.255322 
	C28.632755,27.705801 30.653685,26.699760 31.751368,27.322109 
	C42.450687,33.388279 52.995678,39.726646 63.562958,46.540993 
	C60.582344,49.778183 57.623394,52.461876 54.664440,55.145569 
z"/>
<path fill="#F4CC51" opacity="1.000000" stroke="none" 
	d="
M54.697952,55.372269 
	C57.623394,52.461876 60.582344,49.778183 63.705460,46.867058 
	C67.571632,48.615623 71.590347,50.176254 74.884132,52.687656 
	C78.006622,55.068443 77.488869,58.374023 74.214783,60.532669 
	C71.202362,62.518791 67.865265,64.012474 64.092094,65.499855 
	C60.633938,62.350204 57.754883,59.423790 54.875828,56.497379 
	C54.726795,56.214077 54.678673,55.914604 54.697952,55.372269 
z"/>
<path fill="#E65C5F" opacity="1.000000" stroke="none" 
	d="
M54.823288,56.556107 
	C57.754883,59.423790 60.633938,62.350204 63.734123,65.495834 
	C53.124435,72.210960 42.332958,78.774956 31.399998,85.094162 
	C30.343725,85.704674 28.410213,84.797470 26.669214,84.288528 
	C26.454506,83.982254 26.800148,83.867523 27.336372,83.870003 
	C38.771362,80.297371 56.904945,69.366188 58.662632,64.604218 
	C53.656094,67.601891 49.277332,70.223679 44.898567,72.845474 
	C44.577866,72.480904 44.257164,72.116333 43.936462,71.751762 
	C46.716015,68.919365 49.740795,66.279831 52.179272,63.179199 
	C53.549698,61.436642 53.951572,58.932373 54.789799,56.771271 
	C54.789799,56.771271 54.770752,56.614830 54.823288,56.556107 
z"/>
<path fill="#DB494D" opacity="1.000000" stroke="none" 
	d="
M54.446732,56.770481 
	C53.951572,58.932373 53.549698,61.436642 52.179272,63.179199 
	C49.740795,66.279831 46.716015,68.919365 43.936462,71.751762 
	C44.257164,72.116333 44.577866,72.480904 44.898567,72.845474 
	C49.277332,70.223679 53.656094,67.601891 58.662632,64.604218 
	C56.904945,69.366188 38.771362,80.297371 27.516319,83.897888 
	C33.019176,77.776802 38.819912,71.573105 44.762020,65.507919 
	C47.743107,62.465080 50.981586,59.674404 54.446732,56.770481 
z"/>
</svg>